<svg width="26" height="26" viewBox="0 0 26 26" fill="none" xmlns="http://www.w3.org/2000/svg">
<path d="M12.9999 3.25C18.8412 3.25 23.701 7.45333 24.7205 13C23.7021 18.5467 18.8412 22.75 12.9999 22.75C7.15855 22.75 2.29871 18.5467 1.2793 13C2.29763 7.45333 7.15855 3.25 12.9999 3.25ZM12.9999 20.5833C15.2093 20.5829 17.3531 19.8324 19.0805 18.4548C20.8078 17.0771 22.0164 15.154 22.5083 13C22.0146 10.8477 20.8052 8.92667 19.0781 7.55086C17.3509 6.17505 15.208 5.42591 12.9999 5.42591C10.7917 5.42591 8.64888 6.17505 6.9217 7.55086C5.19453 8.92667 3.98521 10.8477 3.49146 13C3.9834 15.154 5.19194 17.0771 6.91929 18.4548C8.64663 19.8324 10.7905 20.5829 12.9999 20.5833V20.5833ZM12.9999 17.875C11.707 17.875 10.467 17.3614 9.55274 16.4471C8.6385 15.5329 8.12488 14.2929 8.12488 13C8.12488 11.7071 8.6385 10.4671 9.55274 9.55286C10.467 8.63862 11.707 8.125 12.9999 8.125C14.2928 8.125 15.5328 8.63862 16.447 9.55286C17.3613 10.4671 17.8749 11.7071 17.8749 13C17.8749 14.2929 17.3613 15.5329 16.447 16.4471C15.5328 17.3614 14.2928 17.875 12.9999 17.875ZM12.9999 15.7083C13.7182 15.7083 14.4071 15.423 14.915 14.9151C15.4229 14.4072 15.7082 13.7183 15.7082 13C15.7082 12.2817 15.4229 11.5928 14.915 11.0849C14.4071 10.577 13.7182 10.2917 12.9999 10.2917C12.2816 10.2917 11.5927 10.577 11.0848 11.0849C10.5769 11.5928 10.2915 12.2817 10.2915 13C10.2915 13.7183 10.5769 14.4072 11.0848 14.9151C11.5927 15.423 12.2816 15.7083 12.9999 15.7083Z" fill="#D62A92"/>
</svg>
